<svg t="1746367316896" class="icon" viewBox="0 0 1024 1024" version="1.1" xmlns="http://www.w3.org/2000/svg" p-id="3247" width="200" height="200"><path d="M522.24 597.504c-10.752 0-22.528-3.584-35.328-8.192L127.488 407.04c-38.4-19.456-53.76-64.512-34.304-102.912 7.68-15.36 18.944-26.624 34.304-34.304L488.448 87.04c11.264-5.632 23.04-8.704 34.304-8.704s22.528 3.072 34.304 8.704l360.96 182.784c0.512 0 1.024 0.512 1.024 0.512 14.848 6.144 27.136 20.992 37.376 46.08 6.144 15.872 5.12 33.28-4.096 56.32-7.68 14.848-18.944 26.112-33.792 33.792L558.592 588.8c-13.312 4.608-25.088 8.704-36.352 8.704z m0-457.216c-2.56 0-4.608 0.512-7.168 1.536L154.624 324.608c-5.12 2.56-8.192 7.68-8.192 13.824s3.072 11.264 8.192 13.824l360.96 182.784c2.048 1.024 4.608 1.536 7.168 1.536s4.608-0.512 7.168-1.536L890.88 352.256c5.12-2.56 8.192-7.68 8.192-13.824s-3.072-11.264-8.192-13.824l-360.96-182.784c-2.56-1.024-5.12-1.536-7.68-1.536z" p-id="3248"></path><path d="M522.24 780.288c-10.752 0-22.528-3.584-35.328-8.192l-359.936-182.272c-38.4-19.456-53.76-64.512-34.304-102.912 0-0.512 0.512-0.512 0.512-1.024 4.096-9.728 15.36-14.848 24.576-14.848 3.072 0 7.68 0.512 11.264 3.584 1.024 1.024 2.048 1.536 3.584 2.048 6.656 2.56 11.776 8.704 13.824 16.896 2.048 7.168 1.024 14.336-2.048 18.944-2.56 3.584-3.584 8.192-2.56 12.8 1.024 4.608 4.096 8.192 8.192 10.24l360.96 182.784c2.048 1.024 4.608 1.536 7.168 1.536s4.608-0.512 7.168-1.536l360.96-182.784c4.096-2.048 7.168-5.632 8.192-10.24 1.024-4.608 0-9.216-2.56-12.8-5.12-7.168-7.68-17.408-5.632-26.112 1.536-7.168 5.12-12.288 10.24-15.36 0.512-0.512 1.024-0.512 1.536-1.024 5.12-4.096 12.8-6.144 19.968-6.144 5.632 0 15.872 1.536 21.504 11.264 0.512 0.512 1.024 1.536 1.536 2.048 18.944 22.528 22.528 56.32 8.192 77.824-0.512 0.512-0.512 1.024-1.024 1.536-7.68 15.36-18.944 26.624-34.304 34.304L552.96 773.632c-4.608 0.512-16.896 6.656-30.72 6.656z" p-id="3249"></path><path d="M522.24 963.072c-10.752 0-22.528-3.584-35.328-8.192l-359.936-182.272c-0.512 0-1.024-0.512-1.024-0.512-14.848-6.144-27.136-20.992-37.376-46.08-7.168-18.432-3.072-41.472 4.096-55.808 0-0.512 0.512-0.512 0.512-1.024 4.096-9.728 15.36-14.848 24.576-14.848 3.072 0 7.68 0.512 11.264 3.584 1.024 1.024 2.048 1.536 3.584 2.048 6.656 2.56 11.776 8.704 13.824 16.896 2.048 7.168 1.024 14.336-2.048 18.944-2.56 3.584-3.584 8.192-2.56 12.8 1.024 4.608 4.096 8.192 8.192 10.24l360.96 182.784c2.048 1.024 4.608 1.536 7.168 1.536s4.608-0.512 7.168-1.536l360.96-182.784c4.096-2.048 7.168-5.632 8.192-10.24 1.024-4.608 0-9.216-2.56-12.8-5.12-7.168-7.68-16.896-5.632-26.112 1.536-7.168 5.12-12.288 10.24-15.36 0.512-0.512 1.024-0.512 1.536-1.024 5.12-4.096 12.8-6.144 19.968-6.144 5.632 0 15.872 1.536 21.504 11.264 0.512 0.512 1.024 1.536 1.536 2.048 18.944 22.528 22.528 56.32 8.192 77.824-0.512 0.512-0.512 1.024-1.024 1.536-7.68 15.36-18.944 26.624-34.304 34.304L552.96 956.928c-4.608 0-16.896 6.144-30.72 6.144z" p-id="3250"></path></svg>