<svg xmlns="http://www.w3.org/2000/svg" width="1664" height="936" viewBox="0 0 1664 936">
    <!-- 定义背景的线性渐变 -->
    <defs>
        <linearGradient id="whiteToBlueGradient" x1="0%" y1="0%" x2="100%" y2="0%">
            <stop offset="0%" style="stop-color:rgb(255, 255, 255);stop-opacity:1" />
            <stop offset="100%" style="stop-color:rgb(0, 123, 255);stop-opacity:1" />
        </linearGradient>

        <!-- 定义圆形的线性渐变，从左到右充满科技感的颜色 -->
        <linearGradient id="techCircleGradient" x1="0%" y1="0%" x2="100%" y2="0%">
            <stop offset="0%" style="stop-color:rgb(0,255,255);stop-opacity:1" />
            <stop offset="100%" style="stop-color:rgb(0,0,255);stop-opacity:1" />
        </linearGradient>

        <!-- 定义圆形旋转动画 -->
        <animateTransform attributeName="transform"
                          attributeType="XML"
                          type="rotate"
                          from="0 832 468"
                          to="360 832 468"
                          dur="10s"
                          repeatCount="indefinite"/>
    </defs>

    <!-- 使用渐变作为背景 -->
    <rect width="100%" height="100%" fill="url(#whiteToBlueGradient)" />

<!--    火箭-->

    <g transform="scale(0.1) translate(9500, 2500)">
        <path d="M599.18848 470.48704m-345.18528 0a345.18528 345.18528 0 1 0 690.37056 0 345.18528 345.18528 0 1 0-690.37056 0Z" fill="#FFEC43" p-id="3945">

        </path>
        <path d="M599.18336 823.5264c-194.66752 0-353.04448-158.37696-353.04448-353.04448S404.52096 117.4528 599.18336 117.4528s353.04448 158.36672 353.04448 353.02912-158.37696 353.04448-353.04448 353.04448z m0-690.37568c-186.00448 0-337.33632 151.33696-337.33632 337.33632 0 186.0096 151.32672 337.34656 337.33632 337.34656s337.33632-151.33696 337.33632-337.34656c0-185.99936-151.32672-337.33632-337.33632-337.33632z" fill="#6B0204" p-id="3946">

        </path>
        <path d="M203.83232 770.58048c4.26496 5.56032 2.176 14.32064-4.66944 19.56864l-65.33632 50.10944c-6.84544 5.248-15.8464 4.99712-20.11136-0.5632-4.26496-5.56032-2.176-14.32064 4.66944-19.56864l65.33632-50.10944c6.84032-5.248 15.8464-4.99712 20.11136 0.5632zM218.85952 852.56704c4.26496 5.56032 2.176 14.32064-4.66944 19.56864l-65.33632 50.10944c-6.84544 5.248-15.8464 4.99712-20.11136-0.5632-4.26496-5.56032-2.176-14.32064 4.66944-19.56864l65.33632-50.10944c6.84544-5.25312 15.8464-4.99712 20.11136 0.5632zM128.55296 734.81216c4.26496 5.56032 2.176 14.32064-4.66944 19.56864l-65.33632 50.10944c-6.84544 5.248-15.8464 4.99712-20.11136-0.5632-4.26496-5.56032-2.176-14.32064 4.66944-19.56864l65.33632-50.10944c17.48992-13.41952 21.73952 2.688 20.11136 0.5632z" fill="#6C0000" p-id="3947">

        </path>
        <path d="M336.03584 451.57376S241.68448 394.15808 71.5264 538.3168l164.0192 72.28928 100.49024-159.03232z" fill="#BED5E9" p-id="3948">

        </path>
        <path d="M238.5664 620.52864l-181.69344-80.09216 9.57952-8.1152c97.44896-82.55488 171.008-99.8912 215.552-99.8912 37.248 0 57.27232 11.92448 58.112 12.43648l6.81984 4.15232-108.36992 171.50976z m-152.2688-84.28032l146.22208 64.44544 92.05248-145.67424c-7.98208-2.96448-22.34368-6.87616-42.56768-6.87616-40.45824 0-106.7776 15.55456-195.70688 88.10496z" fill="#6C0000" p-id="3949">

        </path>
        <path d="M538.85952 716.04224s30.98624 106.0096-152.36608 232.96512l-27.28448-177.152 179.65056-55.81312z" fill="#BED5E9" p-id="3950">

        </path>
        <path d="M380.64128 962.60608l-30.22848-196.2496 193.74592-60.17536 2.23744 7.66976c1.33632 4.55168 30.4384 112.92672-155.43808 241.6128l-10.3168 7.1424z m-12.64128-185.25696l24.31488 157.93152c138.07616-99.41504 142.6688-183.49568 140.26752-209.05984l-164.5824 51.12832z" fill="#6C0000" p-id="3951">

        </path>
        <path d="M581.10464 683.12064c151.43424-116.13696 228.90496-269.3376 173.04064-342.18496-55.86944-72.84736-223.91808-37.75488-375.35744 78.38208-98.62656 75.63776-165.8368 166.98368-185.31328 241.63328l0.0512 0.01536a4.06016 4.06016 0 0 0-0.41472 1.49504c-0.1792 2.53952 93.87008 32.74752 100.48512 131.67616 0.0768 1.14176 0.53248 2.2528 1.23392 3.16928 0.896 1.16736 2.19648 2.01728 3.60448 2.22208a3.82976 3.82976 0 0 0 1.3568-0.09216c77.12768 0.50688 182.72768-40.71424 281.31328-116.31616z" fill="#BED5E9" p-id="3952">

        </path>
        <path d="M298.81344 807.40864l-1.6128-0.128c-3.28704-0.47104-6.46656-2.39104-8.6272-5.22752a13.4144 13.4144 0 0 1-2.816-7.4496c-3.56864-53.248-34.176-94.38208-90.98752-122.20416-5.74464-2.81088-9.89696-4.84352-9.50272-10.48064 0.07168-1.024 0.27648-2.01728 0.62464-3.01568 20.77184-79.52896 91.08992-171.4176 188.11392-245.81632 96.32256-73.87648 202.75712-117.9904 284.71296-117.9904 45.90592 0 81.05472 14.20288 101.65248 41.05728 58.40384 76.16512-19.87072 234.60864-174.4896 353.20832-96.29696 73.84064-202.71616 117.9392-284.672 117.9392h-0.00512l-2.39104 0.10752z m-96.55808-148.82816c61.14304 30.12608 94.44864 74.86464 99.02592 133.00736 78.60736-0.0256 181.41696-42.89536 275.04128-114.70336 147.74784-113.32096 224.72192-261.88288 171.58656-331.17184-17.5104-22.83008-48.35328-34.90816-89.1904-34.90816-78.61248 0-181.47328 42.89536-275.15392 114.75456-92.58496 70.9888-160 157.73696-181.30944 233.02144z" fill="#6C0000" p-id="3953">

        </path>
        <path d="M503.3216 728.69376L312.61696 477.37856a598.7328 598.7328 0 0 0-29.91616 33.96608l180.04992 237.28128a595.5584 595.5584 0 0 0 40.57088-19.93216z" fill="#FFFFFF" p-id="3954">

        </path>
        <path d="M460.2624 758.32832L272.7168 511.1808l3.89632-4.79232a613.08416 613.08416 0 0 1 30.30016-34.42176l6.36416-6.71232 201.85088 266.01472-8.08448 4.34688a605.71648 605.71648 0 0 1-41.09824 20.18304l-5.6832 2.52928zM292.7104 511.55456l172.51328 227.34848a601.32864 601.32864 0 0 0 26.24512-12.82048L311.99232 489.54368a587.58656 587.58656 0 0 0-19.28192 22.01088z" fill="#6C0000" p-id="3955">

        </path>
        <path d="M419.3792 774.8352l-171.10528-223.10912c-6.89152 8.62208-14.73536 20.84864-20.15232 33.6896l152.36096 200.97536c10.88512-1.45408 28.77952-7.13728 38.89664-11.55584z" fill="#FFFFFF" p-id="3956">

        </path>
        <path d="M376.9856 794.76736l-157.86496-208.22528 1.7664-4.17792c5.06368-12.01664 12.80512-24.96512 21.248-35.5328l6.26176-7.84896 183.31648 239.03232-9.1904 4.01408c-10.58304 4.62848-29.27616 10.58304-41.00608 12.14464l-4.5312 0.59392z m-139.8016-210.39616l146.688 193.47456c6.85568-1.36704 15.47264-3.91168 22.912-6.53312L248.39168 564.7872a143.44704 143.44704 0 0 0-11.20768 19.584z" fill="#6C0000" p-id="3957">

        </path>
        <path d="M556.5184 492.27264m-71.2192 0a71.2192 71.2192 0 1 0 142.4384 0 71.2192 71.2192 0 1 0-142.4384 0Z" fill="#ECF3FE" p-id="3958">

        </path>
        <path d="M556.5184 571.33056c-43.5968 0-79.07328-35.456-79.07328-79.0528s35.47648-79.06816 79.07328-79.06816 79.06816 35.47136 79.06816 79.06816-35.46624 79.0528-79.06816 79.0528z m0-142.42304c-34.93888 0-63.36512 28.42624-63.36512 63.37024 0 34.93376 28.42624 63.36 63.36512 63.36s63.36-28.42624 63.36-63.36c0-34.944-28.42112-63.37024-63.36-63.37024z" fill="#6C0000" p-id="3959">

        </path>
        <path d="M577.90464 436.29056c19.53792 10.0096 27.80672 33.41824 25.20064 56.7296-5.67808 50.88256-65.88416 56.3712-71.92576 54.3488a60.13952 60.13952 0 0 0 27.50976 6.6304c33.37216 0 60.42624-27.05408 60.42624-60.42624 0-26.6496-17.26464-49.2544-41.21088-57.28256z" fill="#BED5E9" p-id="3960">

        </path>
        <path d="M953.2416 170.83392m-38.42048 0a38.42048 38.42048 0 1 0 76.84096 0 38.42048 38.42048 0 1 0-76.84096 0Z" fill="#FFC700" p-id="3961">

        </path>
        <path d="M953.24672 217.09824c-25.51808 0-46.2848-20.75648-46.2848-46.26944s20.7616-46.26944 46.2848-46.26944 46.27456 20.75648 46.27456 46.26944-20.75648 46.26944-46.27456 46.26944z m0-76.84096a30.60736 30.60736 0 0 0-30.57152 30.57152 30.60736 30.60736 0 0 0 30.57152 30.57152 30.60224 30.60224 0 0 0 30.5664-30.57152 30.60736 30.60736 0 0 0-30.5664-30.57152z" fill="#6C0000" p-id="3962">

        </path>
        <path d="M219.4944 205.66016m-28.81536 0a28.81536 28.81536 0 1 0 57.63072 0 28.81536 28.81536 0 1 0-57.63072 0Z" fill="#6C0000" p-id="3963">

        </path>

    </g>

<!--    陨石-->

    <g transform="scale(0.05) translate(12000, 5000)">
         <path d="M177.280123 41.729662l606.206798 385.331698c96.637551 54.194312 158.939936 148.807974 158.939936 257.918521 0 164.202047-133.10093 297.290457-297.29463 297.290457-85.099299 0-187.891976-43.352946-265.217039-177.013053L81.577316 295.925897 315.876849 396.431788 177.280123 41.729662z" fill="#FFF01F" p-id="5375">

         </path>
        <path d="M645.132227 1013.567585c-67.547804 0-195.34072-25.025278-292.303763-192.636639L54.569879 311.745612a31.297246 31.297246 0 0 1 39.342725-44.579798l165.608336 71.040577L148.127781 53.12186a31.297246 31.297246 0 0 1 45.940185-37.802901l605.493221 384.876844c109.077163 61.49283 174.158744 167.890949 174.158743 284.784078 0.004173 181.186019-147.401685 328.587704-328.587703 328.587704zM156.661497 362.1926l250.261128 427.244971c81.318592 140.570539 184.144652 161.535521 238.209602 161.535521 146.671416 0 265.997384-119.325968 265.997384-265.993211 0-94.208885-53.439005-180.422366-142.953303-230.618976a29.386028 29.386028 0 0 1-1.47723-0.884669L241.264213 119.488714l103.764977 265.555049a31.301419 31.301419 0 0 1-41.487629 40.152281L156.661497 362.1926z" fill="#FFF01F" p-id="5376">

        </path>
        <path d="M659.099145 696.24689m-202.272017 0a202.272017 202.272017 0 1 0 404.544034 0 202.272017 202.272017 0 1 0-404.544034 0Z" fill="#A4C9DE" p-id="5377">

        </path>
        <path d="M659.099145 929.816153c-128.790255 0-233.573436-104.774835-233.573437-233.569263s104.779008-233.569263 233.573437-233.569264 233.569263 104.774835 233.569263 233.569264-104.779008 233.569263-233.569263 233.569263z m0-404.544034c-94.279825 0-170.978944 76.699119-170.978944 170.974771s76.699119 170.974771 170.978944 170.97477c94.275652 0 170.974771-76.699119 170.97477-170.97477s-76.703292-170.974771-170.97477-170.974771z" fill="#A4C9DE" p-id="5378">

        </path>
        <path d="M509.936468 384.851807a31.151193 31.151193 0 0 1-18.548834-6.109223L376.818847 294.277576c-13.912669-10.257151-16.875475-29.849227-6.618325-43.761897s29.845054-16.879648 43.761897-6.618324l114.568787 84.465008a31.297246 31.297246 0 0 1-18.594738 56.489444z" fill="#DF0040" opacity=".4" p-id="5379">

        </path>
        <path d="M353.604636 603.753094a31.255517 31.255517 0 0 1-25.663742-13.349319l-32.544963-46.491016a31.297246 31.297246 0 1 1 51.277408-35.900028l32.544963 46.486843a31.297246 31.297246 0 0 1-7.690776 43.586632 31.159539 31.159539 0 0 1-17.92289 5.666888z" fill="#DF0040" opacity=".22" p-id="5380">

        </path>
    </g>

    <g transform="scale(0.05) translate(12000, 6000)">
        <path d="M177.280123 41.729662l606.206798 385.331698c96.637551 54.194312 158.939936 148.807974 158.939936 257.918521 0 164.202047-133.10093 297.290457-297.29463 297.290457-85.099299 0-187.891976-43.352946-265.217039-177.013053L81.577316 295.925897 315.876849 396.431788 177.280123 41.729662z" fill="#FFF01F" p-id="5375">

        </path>
        <path d="M645.132227 1013.567585c-67.547804 0-195.34072-25.025278-292.303763-192.636639L54.569879 311.745612a31.297246 31.297246 0 0 1 39.342725-44.579798l165.608336 71.040577L148.127781 53.12186a31.297246 31.297246 0 0 1 45.940185-37.802901l605.493221 384.876844c109.077163 61.49283 174.158744 167.890949 174.158743 284.784078 0.004173 181.186019-147.401685 328.587704-328.587703 328.587704zM156.661497 362.1926l250.261128 427.244971c81.318592 140.570539 184.144652 161.535521 238.209602 161.535521 146.671416 0 265.997384-119.325968 265.997384-265.993211 0-94.208885-53.439005-180.422366-142.953303-230.618976a29.386028 29.386028 0 0 1-1.47723-0.884669L241.264213 119.488714l103.764977 265.555049a31.301419 31.301419 0 0 1-41.487629 40.152281L156.661497 362.1926z" fill="#FFF01F" p-id="5376">

        </path>
        <path d="M659.099145 696.24689m-202.272017 0a202.272017 202.272017 0 1 0 404.544034 0 202.272017 202.272017 0 1 0-404.544034 0Z" fill="#A4C9DE" p-id="5377">

        </path>
        <path d="M659.099145 929.816153c-128.790255 0-233.573436-104.774835-233.573437-233.569263s104.779008-233.569263 233.573437-233.569264 233.569263 104.774835 233.569263 233.569264-104.779008 233.569263-233.569263 233.569263z m0-404.544034c-94.279825 0-170.978944 76.699119-170.978944 170.974771s76.699119 170.974771 170.978944 170.97477c94.275652 0 170.974771-76.699119 170.97477-170.97477s-76.703292-170.974771-170.97477-170.974771z" fill="#A4C9DE" p-id="5378">

        </path>
        <path d="M509.936468 384.851807a31.151193 31.151193 0 0 1-18.548834-6.109223L376.818847 294.277576c-13.912669-10.257151-16.875475-29.849227-6.618325-43.761897s29.845054-16.879648 43.761897-6.618324l114.568787 84.465008a31.297246 31.297246 0 0 1-18.594738 56.489444z" fill="#DF0040" opacity=".4" p-id="5379">

        </path>
        <path d="M353.604636 603.753094a31.255517 31.255517 0 0 1-25.663742-13.349319l-32.544963-46.491016a31.297246 31.297246 0 1 1 51.277408-35.900028l32.544963 46.486843a31.297246 31.297246 0 0 1-7.690776 43.586632 31.159539 31.159539 0 0 1-17.92289 5.666888z" fill="#DF0040" opacity=".22" p-id="5380">

        </path>
    </g>

    <!-- 添加圆形并应用线性渐变和旋转动画 -->
    <circle cx="832" cy="468" r="190" fill="url(#techCircleGradient)">
        <animateTransform attributeName="transform"
                          attributeType="XML"
                          type="rotate"
                          from="0 832 468"
                          to="360 832 468"
                          dur="10s"
                          repeatCount="indefinite"/>
    </circle>

    <!--    山-->
    <g transform="scale(0.21) translate(3300, 2450)">
         <path d="M617.001385 357.416351m-289.908976 0a289.908976 289.908976 0 1 0 579.817951 0 289.908976 289.908976 0 1 0-579.817951 0Z" fill="#FBDEB5" p-id="13467">

         </path>
        <path d="M981.541214 482.988353H399.569653l207.07784-232.67266A66.264909 66.264909 0 0 1 659.742251 223.644067h69.412492a66.264909 66.264909 0 0 1 54.171563 28.079755z" fill="#D8E1F3" p-id="13468">

        </path>
        <path d="M981.541214 494.667543H399.569653a11.67919 11.67919 0 0 1-8.7801-19.465317L597.370406 242.86089a78.441086 78.441086 0 0 1 62.454676-31.227338h69.412492a78.192592 78.192592 0 0 1 63.44865 32.635468l197.800753 231.016038a11.762021 11.762021 0 0 1-8.862932 19.382485z m-555.879753-23.441211h530.11927l-181.400188-212.130539-0.662649-0.828311a54.66855 54.66855 0 0 0-44.563151-23.192718h-69.412492a54.751381 54.751381 0 0 0-43.900502 22.198744l-0.662649 0.828311z" fill="#952D2E" p-id="13469">

        </path>
        <path d="M1305.328124 874.945288a405.127086 405.127086 0 0 1-80.594695-77.861268C1107.858696 646.994002 1003.242971 450.270055 1003.242971 450.270055h-50.858317l-68.998336-76.370308-10.93371 113.395825-95.835624-124.246703-80.677527 130.790363-56.573665-111.242215-69.743817 96.001286-41.415568-89.457627-75.790489 61.129379h-50.609824S290.895203 629.516633 165.820188 788.386751a679.712301 679.712301 0 0 1-79.932046 82.831136" fill="#FFFFFF" p-id="13470">

        </path>
        <path d="M1305.328124 874.945288a392.205428 392.205428 0 0 1-80.594695-69.660985C1107.858696 670.932201 1018.152576 494.916037 1018.152576 494.916037h-55.248368a26.588795 26.588795 0 0 1-18.22285-7.206309l-20.045134-18.554174a13.501475 13.501475 0 0 0-22.612901 8.283113l-5.798179 51.438136a13.8328 13.8328 0 0 1-24.849341 7.289139l-72.063088-87.718172a22.944225 22.944225 0 0 0-37.605336 2.98192l-50.692655 87.552511a13.915631 13.915631 0 0 1-24.021029 0L648.477217 472.137474a17.311707 17.311707 0 0 0-29.322223-1.159635l-41.415567 60.880884a13.915631 13.915631 0 0 1-24.02103-1.822285l-32.552636-68.004362a13.501475 13.501475 0 0 0-20.542122-4.721375l-48.042059 37.93666-40.255932 41.415568S290.895203 655.111454 165.820188 797.498176a643.680757 643.680757 0 0 1-79.932046 74.548022" fill="#F3A8BC" p-id="13471">

        </path>
        <path d="M948.160266 355.097079a11.762021 11.762021 0 0 1-11.67919-11.762021 319.39686 319.39686 0 0 0-556.211077-214.781135 11.762021 11.762021 0 1 1-17.394539-15.820747 342.920902 342.920902 0 0 1 597.046827 230.601882 11.762021 11.762021 0 0 1-11.762021 11.762021zM325.187293 195.315818a11.762021 11.762021 0 0 1-9.939736-18.057187c5.13553-8.283114 10.602385-15.986409 16.566227-23.689705a11.762021 11.762021 0 0 1 18.719837 14.164124c-5.384024 7.206309-10.519554 14.57828-15.240929 22.115913a11.844852 11.844852 0 0 1-10.105399 5.466855zM305.639145 468.410073a11.762021 11.762021 0 0 1-11.016541-7.703295 345.571499 345.571499 0 0 1 0-235.654582 11.762021 11.762021 0 1 1 22.033082 8.283114 321.716132 321.716132 0 0 0 0 219.50251 11.762021 11.762021 0 0 1-6.957815 15.075267 11.596359 11.596359 0 0 1-4.058726 0.496986zM654.606721 951.978245H219.411933a11.762021 11.762021 0 0 1 0-23.441212h435.194788a11.762021 11.762021 0 0 1 0 23.441212zM750.442345 1023.958502H547.671724a11.762021 11.762021 0 1 1 0-23.441212h202.770621a11.762021 11.762021 0 1 1 0 23.441212zM475.939961 1023.958502h-100.225675a11.762021 11.762021 0 1 1 0-23.441212h100.225675a11.762021 11.762021 0 0 1 0 23.441212zM279.795831 804.952978a11.513528 11.513528 0 0 1-6.460829-1.905116 11.844852 11.844852 0 0 1-3.313245-16.566227l82.831136-124.246704a11.67919 11.67919 0 0 1 19.465317 13.004489l-82.831136 124.246703a11.67919 11.67919 0 0 1-9.691243 5.466855zM388.801606 636.722941a11.265034 11.265034 0 0 1-6.212336-1.822285 11.67919 11.67919 0 0 1-3.727401-16.566227l24.849341-39.676114A11.762021 11.762021 0 1 1 423.42502 591.497141l-24.84934 39.676114a11.762021 11.762021 0 0 1-9.774074 5.549686zM1149.191433 951.978245h-281.046044a11.762021 11.762021 0 1 1 0-23.441212h281.046044a11.762021 11.762021 0 1 1 0 23.441212zM1299.529944 951.978245H1210.320811a11.762021 11.762021 0 1 1 0-23.441212h89.291965a11.762021 11.762021 0 1 1 0 23.441212z" fill="#952D2E" p-id="13472">

        </path>
        <path d="M100.383591 943.032482c-19.216824-52.846265 114.803954-88.629315 133.689453-187.281198 14.743942-76.453138 77.778437-112.236189 132.529817-158.373132a290.98578 290.98578 0 0 0 36.362869-35.783051 232.672661 232.672661 0 0 0 40.173101-61.046547c8.283114-21.536095-6.460829-39.096296-14.909605-57.981795l-3.478907 0.662649L23.350634 952.558062z" fill="#FFFFFF" p-id="13473">

        </path>
        <path d="M1305.245293 886.707309a11.762021 11.762021 0 0 1-6.626491-2.070778 417.717418 417.717418 0 0 1-82.831136-80.346202c-91.114249-117.123226-175.353515-263.154519-207.07784-320.556496a42.32671 42.32671 0 0 0-36.942686-21.784588h-18.802668a11.927684 11.927684 0 0 1-8.283114-3.810233l-51.189642-56.656496-8.283113 86.972692a11.67919 11.67919 0 0 1-8.283114 10.18823 11.844852 11.844852 0 0 1-12.590332-4.141557L777.693789 383.59099l-71.731764 116.460577a11.182203 11.182203 0 0 1-10.436723 5.549686 11.762021 11.762021 0 0 1-10.022568-6.377997L637.543507 405.044254l-58.478782 80.429033a11.596359 11.596359 0 0 1-10.602386 4.804206 11.844852 11.844852 0 0 1-9.52558-6.709322l-35.037571-75.87332-64.111299 51.686629a11.762021 11.762021 0 0 1-7.371971 2.567765h-22.861394a38.433647 38.433647 0 0 0-32.469805 17.808694c-34.043597 53.26042-123.666886 190.511612-222.070275 315.835121a673.168641 673.168641 0 0 1-81.505838 84.57059 11.596359 11.596359 0 0 1-16.566227-1.242467 11.762021 11.762021 0 0 1 1.242467-16.566227 674.990926 674.990926 0 0 0 78.275423-81.257345c97.74074-124.246704 186.949874-261.000909 220.744978-313.930005a61.626365 61.626365 0 0 1 52.266446-28.659573H448.274361l72.560075-58.478782A11.596359 11.596359 0 0 1 531.105497 377.70998a11.844852 11.844852 0 0 1 8.283114 6.543659l33.132454 71.234777 57.981795-79.766384a11.762021 11.762021 0 0 1 19.962304 1.573792L696.767769 469.901034l69.660985-113.064501a11.513528 11.513528 0 0 1 9.359918-5.549686 11.265034 11.265034 0 0 1 9.939737 4.555713l77.778436 100.805492 8.283114-83.907941a11.67919 11.67919 0 0 1 8.283113-10.022567 11.844852 11.844852 0 0 1 12.424671 3.313245l65.519428 72.477244h13.584307a65.767922 65.767922 0 0 1 57.070652 33.629441c31.641494 56.90499 115.052448 201.693816 205.338386 317.574575a396.761141 396.761141 0 0 0 77.944099 75.376334 11.762021 11.762021 0 0 1-6.709322 21.453264z" fill="#952D2E" p-id="13474">

        </path>
        <path d="M1072.40697 711.767951h116.791901a61.295041 61.295041 0 0 0 58.975769-61.626366 58.975769 58.975769 0 0 0-55.165536-58.892937 105.941023 105.941023 0 0 0-187.36403-18.140019 69.329661 69.329661 0 0 0 2.15361 138.659322H1028.092312" fill="#FFFFFF" p-id="13475">

        </path>
        <path d="M1398.016165 886.293154H12.748249a11.762021 11.762021 0 1 1 0-23.441212h1385.267916a11.762021 11.762021 0 1 1 0 23.441212z" fill="#952D2E" p-id="13476">

        </path>
        <path d="M1094.357221 711.767951h102.213622a53.674576 53.674576 0 0 0 51.686628-54.005901 51.686629 51.686629 0 0 0-48.290552-51.520967 92.770872 92.770872 0 0 0-164.08848-15.820747 60.715223 60.715223 0 0 0 1.905116 121.347615h17.560201" fill="#C2E5F3" p-id="13477">

        </path>
        <path d="M1189.198871 723.447141h-116.791901a11.762021 11.762021 0 1 1 0-23.441212h116.791901a49.698682 49.698682 0 0 0 47.213748-49.698681 47.296579 47.296579 0 0 0-44.148995-47.130917 11.762021 11.762021 0 0 1-10.105399-7.371971A94.261833 94.261833 0 0 0 1015.419148 579.817951a11.762021 11.762021 0 0 1-9.442749 5.301193 57.981795 57.981795 0 0 0 1.822285 115.135279H1028.092312a11.762021 11.762021 0 1 1 0 23.441211h-20.045135a81.008851 81.008851 0 0 1-8.283113-161.603546 117.785875 117.785875 0 0 1 202.02514 18.554174 70.986283 70.986283 0 0 1 58.810107 69.743817 72.974231 72.974231 0 0 1-71.40044 73.057062z" fill="#952D2E" p-id="13478">

        </path>

    </g>

<!--    树林

    <g transform="scale(0.06) translate(10000, 10000)">
        <path d="M586.729982 484.686614c0 199.892429-118.060812 328.687099-263.714113 328.687099-145.641672 0-263.710236-128.806299-263.710236-328.687099 0-199.8808 118.068565-421.644094 263.714113-421.644094 145.649425 0 263.714113 221.759419 263.714112 421.644094z" fill="#B3EBB5" p-id="14874"></path><path d="M319.069655 55.134585c-145.649425 0-263.714113 221.759419-263.714113 421.644095s118.064688 328.687099 263.710236 328.687098c145.649425 0 263.714113-128.79467 263.714113-328.683222 0-199.888552-118.064688-421.647971-263.714113-421.647971z m-13.668322 647.535797c-122.62338 0-222.026893-108.443368-222.026893-276.727317 0-168.287826 99.403513-354.996487 222.030769-354.996487 122.62338 0 222.023016 186.708661 222.023016 354.996487 0 168.291702-99.399637 276.727317-222.026892 276.727317z" fill="#A3D6A5" opacity=".65" p-id="14875"></path><path d="M368.688068 692.467595v-164.655602l97.430406-97.42653s16.773349-28.976378-10.039976-55.789703L328.256814 525.567535v176.207389l40.431254-9.307329zM185.057299 521.811266s-24.181224 19.382193 0 43.563416c24.181224 24.177347 128.821805 136.725863 128.821805 136.725863v-33.790914l-128.821805-146.498365z" fill="#A3D6A5" opacity=".65" p-id="14876"></path><path d="M570.917989 484.686614c0 181.2894-104.256814 312.87123-247.898243 312.87123-143.641429 0-247.898243-131.585706-247.898244-312.87123 0-183.820715 110.579285-405.832102 247.898244-405.832102 137.322835 0 247.898243 222.015263 247.898243 405.832102zM323.019746 47.226651c-74.063234 0-145.122229 51.002302-200.074622 143.614294C73.194912 274.680557 43.489764 384.531072 43.489764 484.686614c0 199.617202 117.560751 344.499091 279.529982 344.499092s279.529982-144.88189 279.529981-344.499092c0-100.155542-29.705148-210.006057-79.45536-293.845669C468.145851 98.228952 397.094609 47.226651 323.023622 47.226651z" fill="#6E6E96" p-id="14877"></path><path d="M328.27232 1008.184131V332.540279" fill="#FFD25F" p-id="14878"></path><path d="M344.068807 1008.184131V332.555784a15.815869 15.815869 0 0 0-31.631739 0v675.62447a15.815869 15.815869 0 0 0 31.631739 0z" fill="#6E6E96" p-id="14879"></path><path d="M328.27232 509.782677l116.95215-123.708782" fill="#FFD25F" p-id="14880"></path><path d="M339.746578 520.636705l116.956026-123.681647a15.815869 15.815869 0 0 0-22.975651-21.731315l-116.959903 123.681648a15.811993 15.811993 0 1 0 22.979528 21.731314z" fill="#6E6E96" p-id="14881"></path><path d="M328.27232 657.451726l-127.426287-134.779891" fill="#FFD25F" p-id="14882"></path><path d="M339.746578 646.582193l-127.418534-134.756633a15.811993 15.811993 0 1 0-22.979528 21.727438l127.418534 134.756633a15.811993 15.811993 0 1 0 22.979528-21.727438z" fill="#6E6E96" p-id="14883"></path>
    </g>-->

    <g transform="scale(0.2) translate(3250, 1750)">
        <path d="M889.674786 682.56798H418.666859a52.513769 52.513769 0 0 1 0-105.015203h471.007927m104.669799 315.033273H523.336658a52.501434 52.501434 0 0 1 0-105.002867H863.51042M628.006457 367.534707h497.135285a52.501434 52.501434 0 0 1 0 105.002867h-497.135285a52.501434 52.501434 0 0 1 0-105.002867z m-104.669799 105.002867h497.135285a52.513769 52.513769 0 0 1 0 105.015203h-497.135285a52.513769 52.513769 0 0 1 0-105.015203z m-104.669799 210.030406h366.375136c25.905313 0 59.557547 105.015203 52.328731 105.015203h-418.679195a52.513769 52.513769 0 0 1-0.024672-105.015203z" fill="#E5EAEF" p-id="25024">

        </path>
        <path d="M52.341067 682.56798h497.135285a52.513769 52.513769 0 0 1 0 105.015203h-497.135285a52.513769 52.513769 0 0 1 0-105.015203z" fill="#FFFFFF" p-id="25025">

        </path>
        <path d="M130.834165 472.537574h497.135284a52.513769 52.513769 0 0 1 0 105.015203h-497.135284a52.513769 52.513769 0 0 1 0-105.015203z" fill="#FFFFFF" p-id="25026">

        </path>
        <path d="M366.375136 787.311794a52.513769 52.513769 0 1 0 52.328731 52.501433 52.415083 52.415083 0 0 0-52.328731-52.501433z" fill="#E5EAEF" p-id="25027">

        </path>
        <path d="M1566.555933 888.367185v83.069702a24.955451 24.955451 0 1 0 49.614842 0v-83.069702m0 0h83.119046a24.8691 24.8691 0 1 0 0-49.417468h-83.119046m-49.65185 49.417468h-83.119045a24.8691 24.8691 0 1 1 0-49.417468h83.119045m0 0v-83.390435a24.967787 24.967787 0 1 1 49.614842 0v83.390435" fill="#90BFFF" p-id="25028">

        </path>
        <path d="M1591.326346 222.045537a25.806626 25.806626 0 0 0-24.807421 26.694808v119.164438a24.8691 24.8691 0 1 0 49.614842 0v-119.164438A25.806626 25.806626 0 0 0 1591.326346 222.045537z m-86.351042 86.4744a25.79429 25.79429 0 0 0 26.744151 24.671727h119.324805a24.795085 24.795085 0 1 0 0-49.429804h-119.324805A25.79429 25.79429 0 0 0 1504.975304 308.470594z" fill="#DDE8F5" p-id="25029">

        </path>
        <path d="M678.472473 0a25.732611 25.732611 0 0 0-24.671726 26.707144v119.12743a24.671726 24.671726 0 1 0 49.257101 0V26.707144A25.732611 25.732611 0 0 0 678.472473 0z m-86.203011 86.462065a25.781954 25.781954 0 0 0 26.744151 24.671726h119.312468a24.782749 24.782749 0 1 0 0-49.417468H619.013613a25.781954 25.781954 0 0 0-26.805831 24.733406z" fill="#FFD02C" p-id="25030">

        </path>
        <path d="M1105.626406 283.724852c171.739887 0 288.190435 151.879147 288.190435 339.236237S1268.842212 962.197326 1105.626406 962.197326a339.236237 339.236237 0 1 1 0-678.472474z" fill="#B4E9FF" p-id="25031">

        </path>
        <path d="M727.988628 623.25715c0 193.956776 166.312107 351.177352 371.469847 351.177352 101.462474 0 171.246452-157.220576 171.246452-351.177352m-542.716299-0.641465c0-193.956776 166.312107-351.177352 371.469847-351.177352 101.462474 0 171.246452 157.220576 171.246452 351.177352" fill="#519BFF" p-id="25032">

        </path>
        <path d="M1097.89182 1024a394.747621 394.747621 0 1 1 394.821636-394.747621A394.747621 394.747621 0 0 1 1097.89182 1024z m344.35562-370.075894h-135.694495a552.992073 552.992073 0 0 1-31.30842 155.431875 388.098591 388.098591 0 0 1 74.557957 52.069679 338.619443 338.619443 0 0 0 92.40795-207.501554z m-185.037947 0h-319.99229a469.194555 469.194555 0 0 0 31.468787 134.756969 368.731285 368.731285 0 0 1 260.82949 0.172702 489.733767 489.733767 0 0 0 27.644669-134.929671z m53.278593 243.287893a364.265703 364.265703 0 0 0-55.511384-39.474763 445.707071 445.707071 0 0 1-47.036647 78.949525 88.004048 88.004048 0 0 1-23.623178 23.265438 347.871341 347.871341 0 0 0 126.121865-62.7402zM1097.89182 974.533189a95.713962 95.713962 0 0 0 12.335863 0c0.653801 0 32.628358-33.01077 36.131744-37.217299A474.030213 474.030213 0 0 0 1210.148175 836.371522 304.979545 304.979545 0 0 0 1097.89182 814.166968a297.541019 297.541019 0 0 0-107.889459 20.884616 525.347404 525.347404 0 0 0 81.910131 114.624841C1076.291724 954.364053 1096.991302 974.533189 1097.89182 974.533189z m-88.028719-24.856764a695.841369 695.841369 0 0 1-63.159619-94.307674 373.566944 373.566944 0 0 0-60.44573 42.682086 347.747982 347.747982 0 0 0 136.397639 64.639923c0.949861 0.197374-12.089146-12.126153-12.79229-13.014335z m-163.067775-87.31324a387.753186 387.753186 0 0 1 76.852427-53.833707 469.305578 469.305578 0 0 1-36.477147-154.605372H753.425178a338.311047 338.311047 0 0 0 93.370148 208.439079z m-2.195784-463.396699a348.85821 348.85821 0 0 0-91.149693 205.626503h132.622865a491.399109 491.399109 0 0 1 27.336273-143.478424c0.246717-0.727816-8.129334-5.3661-16.036622-11.484689a400.570148 400.570148 0 0 1-52.772823-50.66339z m40.449295-37.982123a139.395254 139.395254 0 0 0 35.00918 40.930394 23.660186 23.660186 0 0 0 14.64267 7.401518 794.873678 794.873678 0 0 1 50.354993-90.273846c0.468763-0.740152 14.013541-17.899337 13.347404-17.701964a340.92625 340.92625 0 0 0-113.354247 59.643898z m249.02407-72.485532a346.045633 346.045633 0 0 0-74.582629 0.234382c-0.801831 0.086351-11.953451 17.270208-12.335863 17.911673-62.296109 84.463655-109.012023 191.85968-111.442188 297.948103h321.238213a460.127695 460.127695 0 0 0-25.350199-127.059391 52.082014 52.082014 0 0 0-10.399133 3.28134 345.305481 345.305481 0 0 1-124.40718 23.684857c-22.883026 0-39.215709-0.246717-67.230454-0.320732-2.158776 0-28.039417-26.189037-19.638694-36.773208 13.569449-17.122178 57.090375-12.052138 59.717914-12.052139 9.72066 0 19.626358-0.320732 27.138899-0.320732a319.560535 319.560535 0 0 0 111.787591-21.748127 7.401518 7.401518 0 0 0 4.416239-2.208119A811.329719 811.329719 0 0 0 1159.571136 333.068305c-8.635104-13.840838-24.819757-44.495458-25.498229-44.569474z m62.259101 12.520902a89.24997 89.24997 0 0 0 9.239562 19.256282c16.998819 29.433369 33.664571 60.211348 48.430598 92.210577a43.95268 43.95268 0 0 0 9.868691-5.3661 371.617877 371.617877 0 0 0 39.203373-25.905313 39.191037 39.191037 0 0 0 14.173907-14.877051A340.950922 340.950922 0 0 0 1196.332008 300.995061z m156.468088 99.83414a226.338417 226.338417 0 0 0-22.549957 16.875461q-17.270208 13.705144-35.909698 25.73261a243.608625 243.608625 0 0 0-21.452066 13.50777 494.088327 494.088327 0 0 1 33.972967 147.623275h135.20106a348.882882 348.882882 0 0 0-89.262306-203.677437z" fill="#48506F" p-id="25033">

        </path>
    </g>

<!--    风-->
    <g transform="scale(0.18) translate(5500, 2800)">
        <path d="M22.297822 445.156528h716.730007c12.198809 0 22.297822-9.999024 22.297823-22.297823 0-12.198809-9.999024-22.297822-22.297823-22.297822H22.297822C9.999024 400.660873 0 410.659896 0 422.958695c0 12.198809 9.999024 22.197832 22.297822 22.197833z" fill="" p-id="16954"></path><path d="M511.950005 289.371741c12.298799 0 22.297822-9.999024 22.297822-22.297822 0-122.688019 99.890245-222.578264 222.578264-222.578264s222.578264 99.890245 222.578264 222.578264-99.890245 222.578264-222.578264 222.578263c-0.399961 0-0.699932 0.09999-1.099892 0.099991-0.399961 0-0.699932-0.09999-1.099893-0.099991H220.378479c-12.198809 0-22.297822 9.999024-22.297823 22.297823s9.999024 22.297822 22.297823 22.297822h534.247827c0.399961 0 0.699932-0.09999 1.099893-0.09999 0.399961 0 0.699932 0.09999 1.099892 0.09999 147.285617 0 267.073919-119.788302 267.073919-267.073918S904.111708 0 756.826091 0 489.652182 119.788302 489.652182 267.073919c0 12.298799 9.999024 22.297822 22.297823 22.297822zM408.460111 667.834782c-0.299971 0-0.599941-0.09999-0.799922-0.09999H22.297822C9.999024 667.734792 0 677.733815 0 690.032614c0 12.198809 9.999024 22.297822 22.297822 22.297822h382.862612c73.592813 0 133.586954 59.894151 133.586954 133.586955s-59.894151 133.586954-133.586954 133.586954S271.573479 919.610194 271.573479 845.917391c0-12.298799-9.999024-22.297822-22.297822-22.297823S226.977834 833.618592 226.977834 845.917391c0 98.190411 79.892198 178.082609 178.082609 178.082609S583.143052 944.107802 583.143052 845.917391c0-97.190509-78.092374-176.282785-174.682941-178.082609zM1001.602187 578.743482H284.87218c-12.198809 0-22.297822 9.999024-22.297822 22.297823s9.999024 22.297822 22.297822 22.297822h716.730007c12.198809 0 22.297822-9.999024 22.297823-22.297822s-9.999024-22.297822-22.297823-22.297823z" fill="" p-id="16955"></path>
    </g>
<!--    scale(-1, 1)-->
    <g transform="scale(0.18) translate(3750, 2800) scale(-1, 1)">
        <path d="M22.297822 445.156528h716.730007c12.198809 0 22.297822-9.999024 22.297823-22.297823 0-12.198809-9.999024-22.297822-22.297823-22.297822H22.297822C9.999024 400.660873 0 410.659896 0 422.958695c0 12.198809 9.999024 22.197832 22.297822 22.197833z" fill="" p-id="16954"></path><path d="M511.950005 289.371741c12.298799 0 22.297822-9.999024 22.297822-22.297822 0-122.688019 99.890245-222.578264 222.578264-222.578264s222.578264 99.890245 222.578264 222.578264-99.890245 222.578264-222.578264 222.578263c-0.399961 0-0.699932 0.09999-1.099892 0.099991-0.399961 0-0.699932-0.09999-1.099893-0.099991H220.378479c-12.198809 0-22.297822 9.999024-22.297823 22.297823s9.999024 22.297822 22.297823 22.297822h534.247827c0.399961 0 0.699932-0.09999 1.099893-0.09999 0.399961 0 0.699932 0.09999 1.099892 0.09999 147.285617 0 267.073919-119.788302 267.073919-267.073918S904.111708 0 756.826091 0 489.652182 119.788302 489.652182 267.073919c0 12.298799 9.999024 22.297822 22.297823 22.297822zM408.460111 667.834782c-0.299971 0-0.599941-0.09999-0.799922-0.09999H22.297822C9.999024 667.734792 0 677.733815 0 690.032614c0 12.198809 9.999024 22.297822 22.297822 22.297822h382.862612c73.592813 0 133.586954 59.894151 133.586954 133.586955s-59.894151 133.586954-133.586954 133.586954S271.573479 919.610194 271.573479 845.917391c0-12.298799-9.999024-22.297822-22.297822-22.297823S226.977834 833.618592 226.977834 845.917391c0 98.190411 79.892198 178.082609 178.082609 178.082609S583.143052 944.107802 583.143052 845.917391c0-97.190509-78.092374-176.282785-174.682941-178.082609zM1001.602187 578.743482H284.87218c-12.198809 0-22.297822 9.999024-22.297822 22.297823s9.999024 22.297822 22.297822 22.297822h716.730007c12.198809 0 22.297822-9.999024 22.297823-22.297822s-9.999024-22.297822-22.297823-22.297823z" fill="" p-id="16955"></path>
    </g>
</svg>